<mxfile host="app.diagrams.net" agent="Mozilla/5.0 (Windows NT 10.0; Win64; x64) AppleWebKit/537.36 (KHTML, like Gecko) Chrome/137.0.0.0 Safari/537.36" version="27.1.4">
  <diagram name="Page-1" id="FoES9w_ND_algkTYo06E">
    <mxGraphModel dx="946" dy="644" grid="1" gridSize="10" guides="1" tooltips="1" connect="1" arrows="1" fold="1" page="1" pageScale="1" pageWidth="827" pageHeight="1169" math="0" shadow="0">
      <root>
        <mxCell id="0" />
        <mxCell id="1" parent="0" />
        <mxCell id="DUTZ5G-OFtsHlPkJzi87-10" value="" style="edgeStyle=orthogonalEdgeStyle;rounded=0;orthogonalLoop=1;jettySize=auto;html=1;fontSize=16;" edge="1" parent="1" source="DUTZ5G-OFtsHlPkJzi87-1" target="DUTZ5G-OFtsHlPkJzi87-2">
          <mxGeometry relative="1" as="geometry" />
        </mxCell>
        <mxCell id="DUTZ5G-OFtsHlPkJzi87-1" value="Video" style="rounded=1;whiteSpace=wrap;html=1;fontSize=16;" vertex="1" parent="1">
          <mxGeometry x="170" y="150" width="120" height="60" as="geometry" />
        </mxCell>
        <mxCell id="DUTZ5G-OFtsHlPkJzi87-11" value="" style="edgeStyle=orthogonalEdgeStyle;rounded=0;orthogonalLoop=1;jettySize=auto;html=1;fontSize=16;" edge="1" parent="1" source="DUTZ5G-OFtsHlPkJzi87-2" target="DUTZ5G-OFtsHlPkJzi87-5">
          <mxGeometry relative="1" as="geometry" />
        </mxCell>
        <mxCell id="DUTZ5G-OFtsHlPkJzi87-2" value="Azure Media&lt;div&gt;Services&lt;/div&gt;" style="rounded=1;whiteSpace=wrap;html=1;fontSize=16;" vertex="1" parent="1">
          <mxGeometry x="170" y="240" width="120" height="60" as="geometry" />
        </mxCell>
        <mxCell id="DUTZ5G-OFtsHlPkJzi87-28" style="edgeStyle=orthogonalEdgeStyle;rounded=0;orthogonalLoop=1;jettySize=auto;html=1;exitX=0.25;exitY=1;exitDx=0;exitDy=0;fontSize=16;" edge="1" parent="1" source="DUTZ5G-OFtsHlPkJzi87-3" target="DUTZ5G-OFtsHlPkJzi87-1">
          <mxGeometry relative="1" as="geometry" />
        </mxCell>
        <mxCell id="DUTZ5G-OFtsHlPkJzi87-3" value="Users" style="rounded=0;whiteSpace=wrap;html=1;fontSize=16;" vertex="1" parent="1">
          <mxGeometry x="170" y="50" width="410" height="60" as="geometry" />
        </mxCell>
        <mxCell id="DUTZ5G-OFtsHlPkJzi87-12" value="" style="edgeStyle=orthogonalEdgeStyle;rounded=0;orthogonalLoop=1;jettySize=auto;html=1;fontSize=16;" edge="1" parent="1" source="DUTZ5G-OFtsHlPkJzi87-5" target="DUTZ5G-OFtsHlPkJzi87-6">
          <mxGeometry relative="1" as="geometry" />
        </mxCell>
        <mxCell id="DUTZ5G-OFtsHlPkJzi87-5" value="H.265/HEVC&amp;nbsp;&lt;div&gt;Encoder&lt;/div&gt;" style="rounded=1;whiteSpace=wrap;html=1;fontSize=16;" vertex="1" parent="1">
          <mxGeometry x="170" y="330" width="120" height="60" as="geometry" />
        </mxCell>
        <mxCell id="DUTZ5G-OFtsHlPkJzi87-13" value="" style="edgeStyle=orthogonalEdgeStyle;rounded=0;orthogonalLoop=1;jettySize=auto;html=1;fontSize=16;" edge="1" parent="1" source="DUTZ5G-OFtsHlPkJzi87-6" target="DUTZ5G-OFtsHlPkJzi87-7">
          <mxGeometry relative="1" as="geometry" />
        </mxCell>
        <mxCell id="DUTZ5G-OFtsHlPkJzi87-6" value="RLE" style="rounded=1;whiteSpace=wrap;html=1;fontSize=16;" vertex="1" parent="1">
          <mxGeometry x="170" y="420" width="120" height="60" as="geometry" />
        </mxCell>
        <mxCell id="DUTZ5G-OFtsHlPkJzi87-14" value="" style="edgeStyle=orthogonalEdgeStyle;rounded=0;orthogonalLoop=1;jettySize=auto;html=1;fontSize=16;" edge="1" parent="1" source="DUTZ5G-OFtsHlPkJzi87-7" target="DUTZ5G-OFtsHlPkJzi87-9">
          <mxGeometry relative="1" as="geometry" />
        </mxCell>
        <mxCell id="DUTZ5G-OFtsHlPkJzi87-7" value="CABAC" style="rounded=1;whiteSpace=wrap;html=1;fontSize=16;" vertex="1" parent="1">
          <mxGeometry x="170" y="510" width="120" height="60" as="geometry" />
        </mxCell>
        <mxCell id="DUTZ5G-OFtsHlPkJzi87-39" style="edgeStyle=orthogonalEdgeStyle;rounded=0;orthogonalLoop=1;jettySize=auto;html=1;exitX=0.5;exitY=1;exitDx=0;exitDy=0;entryX=0;entryY=0.5;entryDx=0;entryDy=0;fontSize=16;" edge="1" parent="1" source="DUTZ5G-OFtsHlPkJzi87-9" target="DUTZ5G-OFtsHlPkJzi87-26">
          <mxGeometry relative="1" as="geometry" />
        </mxCell>
        <mxCell id="DUTZ5G-OFtsHlPkJzi87-9" value="Storage" style="rounded=0;whiteSpace=wrap;html=1;fontSize=16;" vertex="1" parent="1">
          <mxGeometry x="210" y="600" width="130" height="60" as="geometry" />
        </mxCell>
        <mxCell id="DUTZ5G-OFtsHlPkJzi87-29" style="edgeStyle=orthogonalEdgeStyle;rounded=0;orthogonalLoop=1;jettySize=auto;html=1;entryX=0.75;entryY=1;entryDx=0;entryDy=0;fontSize=16;" edge="1" parent="1" source="DUTZ5G-OFtsHlPkJzi87-16" target="DUTZ5G-OFtsHlPkJzi87-3">
          <mxGeometry relative="1" as="geometry" />
        </mxCell>
        <mxCell id="DUTZ5G-OFtsHlPkJzi87-16" value="Video" style="rounded=1;whiteSpace=wrap;html=1;fontSize=16;" vertex="1" parent="1">
          <mxGeometry x="460" y="150" width="120" height="60" as="geometry" />
        </mxCell>
        <mxCell id="DUTZ5G-OFtsHlPkJzi87-17" value="" style="edgeStyle=orthogonalEdgeStyle;rounded=0;orthogonalLoop=1;jettySize=auto;html=1;fontSize=16;" edge="1" parent="1" source="DUTZ5G-OFtsHlPkJzi87-18" target="DUTZ5G-OFtsHlPkJzi87-20">
          <mxGeometry relative="1" as="geometry" />
        </mxCell>
        <mxCell id="DUTZ5G-OFtsHlPkJzi87-38" value="" style="edgeStyle=orthogonalEdgeStyle;rounded=0;orthogonalLoop=1;jettySize=auto;html=1;fontSize=16;" edge="1" parent="1" source="DUTZ5G-OFtsHlPkJzi87-18" target="DUTZ5G-OFtsHlPkJzi87-16">
          <mxGeometry relative="1" as="geometry" />
        </mxCell>
        <mxCell id="DUTZ5G-OFtsHlPkJzi87-18" value="Azure Media&lt;div&gt;Services&lt;/div&gt;" style="rounded=1;whiteSpace=wrap;html=1;fontSize=16;" vertex="1" parent="1">
          <mxGeometry x="460" y="240" width="120" height="60" as="geometry" />
        </mxCell>
        <mxCell id="DUTZ5G-OFtsHlPkJzi87-20" value="H.265/HEVC&amp;nbsp;&lt;div&gt;Encoder&lt;/div&gt;" style="rounded=1;whiteSpace=wrap;html=1;fontSize=16;" vertex="1" parent="1">
          <mxGeometry x="460" y="330" width="120" height="60" as="geometry" />
        </mxCell>
        <mxCell id="DUTZ5G-OFtsHlPkJzi87-37" value="" style="edgeStyle=orthogonalEdgeStyle;rounded=0;orthogonalLoop=1;jettySize=auto;html=1;fontSize=16;" edge="1" parent="1" source="DUTZ5G-OFtsHlPkJzi87-22" target="DUTZ5G-OFtsHlPkJzi87-20">
          <mxGeometry relative="1" as="geometry" />
        </mxCell>
        <mxCell id="DUTZ5G-OFtsHlPkJzi87-22" value="RLE" style="rounded=1;whiteSpace=wrap;html=1;fontSize=16;" vertex="1" parent="1">
          <mxGeometry x="460" y="420" width="120" height="60" as="geometry" />
        </mxCell>
        <mxCell id="DUTZ5G-OFtsHlPkJzi87-36" value="" style="edgeStyle=orthogonalEdgeStyle;rounded=0;orthogonalLoop=1;jettySize=auto;html=1;fontSize=16;" edge="1" parent="1" source="DUTZ5G-OFtsHlPkJzi87-24" target="DUTZ5G-OFtsHlPkJzi87-22">
          <mxGeometry relative="1" as="geometry" />
        </mxCell>
        <mxCell id="DUTZ5G-OFtsHlPkJzi87-24" value="CABAC" style="rounded=1;whiteSpace=wrap;html=1;fontSize=16;" vertex="1" parent="1">
          <mxGeometry x="460" y="510" width="120" height="60" as="geometry" />
        </mxCell>
        <mxCell id="DUTZ5G-OFtsHlPkJzi87-35" style="edgeStyle=orthogonalEdgeStyle;rounded=0;orthogonalLoop=1;jettySize=auto;html=1;exitX=0.5;exitY=0;exitDx=0;exitDy=0;entryX=0.5;entryY=1;entryDx=0;entryDy=0;fontSize=16;" edge="1" parent="1" source="DUTZ5G-OFtsHlPkJzi87-25" target="DUTZ5G-OFtsHlPkJzi87-24">
          <mxGeometry relative="1" as="geometry" />
        </mxCell>
        <mxCell id="DUTZ5G-OFtsHlPkJzi87-25" value="Storage" style="rounded=0;whiteSpace=wrap;html=1;fontSize=16;" vertex="1" parent="1">
          <mxGeometry x="410" y="600" width="130" height="60" as="geometry" />
        </mxCell>
        <mxCell id="DUTZ5G-OFtsHlPkJzi87-34" style="edgeStyle=orthogonalEdgeStyle;rounded=0;orthogonalLoop=1;jettySize=auto;html=1;exitX=1;exitY=0.5;exitDx=0;exitDy=0;entryX=0.5;entryY=1;entryDx=0;entryDy=0;fontSize=16;" edge="1" parent="1" source="DUTZ5G-OFtsHlPkJzi87-26" target="DUTZ5G-OFtsHlPkJzi87-25">
          <mxGeometry relative="1" as="geometry" />
        </mxCell>
        <mxCell id="DUTZ5G-OFtsHlPkJzi87-26" value="NETWORK" style="ellipse;whiteSpace=wrap;html=1;aspect=fixed;fontSize=16;" vertex="1" parent="1">
          <mxGeometry x="330" y="660" width="90" height="90" as="geometry" />
        </mxCell>
      </root>
    </mxGraphModel>
  </diagram>
</mxfile>
